<mxfile host="app.diagrams.net" agent="Mozilla/5.0 (Macintosh; Intel Mac OS X 10_15_7) AppleWebKit/537.36 (KHTML, like Gecko) Chrome/129.0.0.0 Safari/537.36" version="24.7.17">
  <diagram name="Page-1" id="xOBLhyYj3MYxFQuUd8QE">
    <mxGraphModel dx="2524" dy="716" grid="1" gridSize="10" guides="1" tooltips="1" connect="1" arrows="1" fold="1" page="1" pageScale="1" pageWidth="850" pageHeight="1100" math="0" shadow="0">
      <root>
        <mxCell id="0" />
        <mxCell id="1" parent="0" />
        <mxCell id="nORpQxfe3uyOhzm3IzQl-1" value="&lt;h1 style=&quot;margin-top: 0px;&quot;&gt;&lt;span style=&quot;background-color: initial; font-size: 12px; font-weight: normal;&quot;&gt;Feature: New User Incentive Campaign&lt;/span&gt;&lt;br&gt;&lt;/h1&gt;&lt;p&gt;&lt;span style=&quot;background-color: initial;&quot;&gt;Description: In order to drive additional traffic to our product and speed up our user&amp;nbsp;&lt;/span&gt;&lt;br&gt;&lt;/p&gt;&lt;p&gt;acquisition efforts, we need to be able to offer incentives in our communication on campaigns.&amp;nbsp;&lt;/p&gt;&lt;p&gt;The goal is to incentivise new users to create an account at Bitvavo and start trading actively.&lt;/p&gt;&lt;p&gt;&lt;br&gt;&lt;/p&gt;&lt;p&gt;How it works: The user needs to complete a set of tasks after registration to unlock the reward:&lt;/p&gt;&lt;p&gt;1. Verify their email address&lt;/p&gt;&lt;p&gt;2. Verify their identity (KYC)&lt;/p&gt;&lt;p&gt;3. Make the first deposit (minimum amount required)&lt;/p&gt;&lt;p&gt;&lt;span style=&quot;background-color: initial;&quot;&gt;These tasks can happen in any order.&lt;/span&gt;&lt;br&gt;&lt;/p&gt;&lt;p&gt;&lt;br&gt;&lt;/p&gt;&lt;p&gt;Some users are not eligible to participate:&lt;/p&gt;&lt;p&gt;1. Users re-using a document (Id verfication)&lt;/p&gt;&lt;p&gt;&lt;span style=&quot;background-color: initial;&quot;&gt;&lt;br&gt;The reward can be:&lt;/span&gt;&lt;br&gt;&lt;/p&gt;&lt;p&gt;1. Direct credit&lt;/p&gt;" style="text;html=1;whiteSpace=wrap;overflow=hidden;rounded=0;" parent="1" vertex="1">
          <mxGeometry x="-130" y="250" width="540" height="440" as="geometry" />
        </mxCell>
        <mxCell id="nORpQxfe3uyOhzm3IzQl-2" value="&lt;h1 style=&quot;margin-top: 0px;&quot;&gt;Assumption - calculations&lt;br&gt;Use case&lt;br&gt;&lt;br&gt;&lt;p style=&quot;font-size: 12px; font-weight: 400;&quot;&gt;- User is already registered&lt;br&gt;- User getting notification about incentive program&lt;br&gt;- verification use case&lt;br&gt;- ..&lt;/p&gt;&lt;p style=&quot;font-size: 12px; font-weight: 400;&quot;&gt;&lt;br&gt;&lt;/p&gt;&lt;p style=&quot;font-size: 12px; font-weight: 400;&quot;&gt;10K - 100K user per day&lt;br&gt;users are only EU for now&lt;br&gt;Out of scope:&lt;br&gt;wallet&lt;br&gt;&lt;br&gt;&lt;/p&gt;&lt;/h1&gt;" style="text;html=1;whiteSpace=wrap;overflow=hidden;rounded=0;" parent="1" vertex="1">
          <mxGeometry x="410" y="150" width="360" height="280" as="geometry" />
        </mxCell>
        <mxCell id="nORpQxfe3uyOhzm3IzQl-8" style="edgeStyle=orthogonalEdgeStyle;rounded=0;orthogonalLoop=1;jettySize=auto;html=1;entryX=0;entryY=0.75;entryDx=0;entryDy=0;" parent="1" source="nORpQxfe3uyOhzm3IzQl-3" target="nORpQxfe3uyOhzm3IzQl-4" edge="1">
          <mxGeometry relative="1" as="geometry" />
        </mxCell>
        <mxCell id="nORpQxfe3uyOhzm3IzQl-9" style="edgeStyle=orthogonalEdgeStyle;rounded=0;orthogonalLoop=1;jettySize=auto;html=1;entryX=0;entryY=0.5;entryDx=0;entryDy=0;" parent="1" source="nORpQxfe3uyOhzm3IzQl-3" target="nORpQxfe3uyOhzm3IzQl-5" edge="1">
          <mxGeometry relative="1" as="geometry" />
        </mxCell>
        <mxCell id="nORpQxfe3uyOhzm3IzQl-10" style="edgeStyle=orthogonalEdgeStyle;rounded=0;orthogonalLoop=1;jettySize=auto;html=1;entryX=0.5;entryY=0;entryDx=0;entryDy=0;" parent="1" source="nORpQxfe3uyOhzm3IzQl-3" target="nORpQxfe3uyOhzm3IzQl-6" edge="1">
          <mxGeometry relative="1" as="geometry" />
        </mxCell>
        <mxCell id="nORpQxfe3uyOhzm3IzQl-3" value="Web/Mobile" style="shape=umlActor;verticalLabelPosition=bottom;verticalAlign=top;html=1;outlineConnect=0;" parent="1" vertex="1">
          <mxGeometry x="480" y="450" width="30" height="60" as="geometry" />
        </mxCell>
        <mxCell id="nORpQxfe3uyOhzm3IzQl-4" value="DNS" style="rounded=1;whiteSpace=wrap;html=1;" parent="1" vertex="1">
          <mxGeometry x="610" y="450" width="80" height="30" as="geometry" />
        </mxCell>
        <mxCell id="nORpQxfe3uyOhzm3IzQl-5" value="CDN" style="rounded=1;whiteSpace=wrap;html=1;" parent="1" vertex="1">
          <mxGeometry x="610" y="510" width="80" height="30" as="geometry" />
        </mxCell>
        <mxCell id="nORpQxfe3uyOhzm3IzQl-11" style="edgeStyle=orthogonalEdgeStyle;rounded=0;orthogonalLoop=1;jettySize=auto;html=1;entryX=0.5;entryY=0;entryDx=0;entryDy=0;" parent="1" source="nORpQxfe3uyOhzm3IzQl-6" target="nORpQxfe3uyOhzm3IzQl-7" edge="1">
          <mxGeometry relative="1" as="geometry" />
        </mxCell>
        <mxCell id="nORpQxfe3uyOhzm3IzQl-6" value="LB" style="rounded=1;whiteSpace=wrap;html=1;" parent="1" vertex="1">
          <mxGeometry x="430" y="570" width="100" height="30" as="geometry" />
        </mxCell>
        <mxCell id="nORpQxfe3uyOhzm3IzQl-14" value="Pass REST with login details" style="edgeStyle=orthogonalEdgeStyle;rounded=0;orthogonalLoop=1;jettySize=auto;html=1;" parent="1" source="nORpQxfe3uyOhzm3IzQl-7" target="nORpQxfe3uyOhzm3IzQl-12" edge="1">
          <mxGeometry relative="1" as="geometry" />
        </mxCell>
        <mxCell id="nORpQxfe3uyOhzm3IzQl-40" value="1" style="edgeLabel;html=1;align=center;verticalAlign=middle;resizable=0;points=[];" parent="nORpQxfe3uyOhzm3IzQl-14" connectable="0" vertex="1">
          <mxGeometry x="0.6" relative="1" as="geometry">
            <mxPoint as="offset" />
          </mxGeometry>
        </mxCell>
        <mxCell id="nORpQxfe3uyOhzm3IzQl-27" style="edgeStyle=orthogonalEdgeStyle;rounded=0;orthogonalLoop=1;jettySize=auto;html=1;" parent="1" source="nORpQxfe3uyOhzm3IzQl-7" target="nORpQxfe3uyOhzm3IzQl-26" edge="1">
          <mxGeometry relative="1" as="geometry">
            <Array as="points">
              <mxPoint x="220" y="665" />
              <mxPoint x="220" y="700" />
            </Array>
          </mxGeometry>
        </mxCell>
        <mxCell id="nORpQxfe3uyOhzm3IzQl-50" style="edgeStyle=orthogonalEdgeStyle;rounded=0;orthogonalLoop=1;jettySize=auto;html=1;entryX=0.5;entryY=0;entryDx=0;entryDy=0;" parent="1" source="nORpQxfe3uyOhzm3IzQl-7" target="nORpQxfe3uyOhzm3IzQl-49" edge="1">
          <mxGeometry relative="1" as="geometry" />
        </mxCell>
        <mxCell id="nORpQxfe3uyOhzm3IzQl-54" style="edgeStyle=orthogonalEdgeStyle;rounded=0;orthogonalLoop=1;jettySize=auto;html=1;" parent="1" source="nORpQxfe3uyOhzm3IzQl-7" target="nORpQxfe3uyOhzm3IzQl-49" edge="1">
          <mxGeometry relative="1" as="geometry" />
        </mxCell>
        <mxCell id="nORpQxfe3uyOhzm3IzQl-73" value="A" style="edgeLabel;html=1;align=center;verticalAlign=middle;resizable=0;points=[];" parent="nORpQxfe3uyOhzm3IzQl-54" connectable="0" vertex="1">
          <mxGeometry x="0.3073" relative="1" as="geometry">
            <mxPoint as="offset" />
          </mxGeometry>
        </mxCell>
        <mxCell id="nORpQxfe3uyOhzm3IzQl-69" style="edgeStyle=orthogonalEdgeStyle;rounded=0;orthogonalLoop=1;jettySize=auto;html=1;" parent="1" source="nORpQxfe3uyOhzm3IzQl-7" target="nORpQxfe3uyOhzm3IzQl-67" edge="1">
          <mxGeometry relative="1" as="geometry" />
        </mxCell>
        <mxCell id="nORpQxfe3uyOhzm3IzQl-74" value="B" style="edgeLabel;html=1;align=center;verticalAlign=middle;resizable=0;points=[];" parent="nORpQxfe3uyOhzm3IzQl-69" connectable="0" vertex="1">
          <mxGeometry x="0.0158" y="-3" relative="1" as="geometry">
            <mxPoint y="1" as="offset" />
          </mxGeometry>
        </mxCell>
        <mxCell id="nORpQxfe3uyOhzm3IzQl-7" value="WebServer" style="rounded=1;whiteSpace=wrap;html=1;" parent="1" vertex="1">
          <mxGeometry x="430" y="650" width="100" height="30" as="geometry" />
        </mxCell>
        <mxCell id="nORpQxfe3uyOhzm3IzQl-43" style="edgeStyle=orthogonalEdgeStyle;rounded=0;orthogonalLoop=1;jettySize=auto;html=1;entryX=0.75;entryY=0;entryDx=0;entryDy=0;" parent="1" source="nORpQxfe3uyOhzm3IzQl-12" target="nORpQxfe3uyOhzm3IzQl-18" edge="1">
          <mxGeometry relative="1" as="geometry" />
        </mxCell>
        <mxCell id="nORpQxfe3uyOhzm3IzQl-44" value="1.0" style="edgeLabel;html=1;align=center;verticalAlign=middle;resizable=0;points=[];" parent="nORpQxfe3uyOhzm3IzQl-43" connectable="0" vertex="1">
          <mxGeometry x="-0.1314" relative="1" as="geometry">
            <mxPoint as="offset" />
          </mxGeometry>
        </mxCell>
        <mxCell id="nORpQxfe3uyOhzm3IzQl-65" style="edgeStyle=orthogonalEdgeStyle;rounded=0;orthogonalLoop=1;jettySize=auto;html=1;entryX=0.75;entryY=0;entryDx=0;entryDy=0;" parent="1" source="nORpQxfe3uyOhzm3IzQl-12" target="nORpQxfe3uyOhzm3IzQl-64" edge="1">
          <mxGeometry relative="1" as="geometry" />
        </mxCell>
        <mxCell id="nORpQxfe3uyOhzm3IzQl-12" value="UnlockReward" style="rounded=1;whiteSpace=wrap;html=1;" parent="1" vertex="1">
          <mxGeometry x="210" y="800" width="110" height="40" as="geometry" />
        </mxCell>
        <mxCell id="nORpQxfe3uyOhzm3IzQl-30" style="edgeStyle=orthogonalEdgeStyle;rounded=0;orthogonalLoop=1;jettySize=auto;html=1;" parent="1" source="nORpQxfe3uyOhzm3IzQl-15" target="nORpQxfe3uyOhzm3IzQl-17" edge="1">
          <mxGeometry relative="1" as="geometry" />
        </mxCell>
        <mxCell id="nORpQxfe3uyOhzm3IzQl-15" value="Incentive Engine" style="rounded=1;whiteSpace=wrap;html=1;" parent="1" vertex="1">
          <mxGeometry x="810" y="650" width="100" height="30" as="geometry" />
        </mxCell>
        <mxCell id="nORpQxfe3uyOhzm3IzQl-16" value="registeraion&lt;br&gt;email vervication&lt;br&gt;KYC&lt;br&gt;deposit" style="rounded=1;whiteSpace=wrap;html=1;" parent="1" vertex="1">
          <mxGeometry x="-20" y="780" width="100" height="30" as="geometry" />
        </mxCell>
        <mxCell id="nORpQxfe3uyOhzm3IzQl-23" style="edgeStyle=orthogonalEdgeStyle;rounded=0;orthogonalLoop=1;jettySize=auto;html=1;entryX=0;entryY=0.75;entryDx=0;entryDy=0;" parent="1" source="nORpQxfe3uyOhzm3IzQl-17" target="nORpQxfe3uyOhzm3IzQl-21" edge="1">
          <mxGeometry relative="1" as="geometry" />
        </mxCell>
        <mxCell id="nORpQxfe3uyOhzm3IzQl-24" style="edgeStyle=orthogonalEdgeStyle;rounded=0;orthogonalLoop=1;jettySize=auto;html=1;entryX=0;entryY=0.5;entryDx=0;entryDy=0;" parent="1" source="nORpQxfe3uyOhzm3IzQl-17" target="nORpQxfe3uyOhzm3IzQl-19" edge="1">
          <mxGeometry relative="1" as="geometry" />
        </mxCell>
        <mxCell id="nORpQxfe3uyOhzm3IzQl-25" style="edgeStyle=orthogonalEdgeStyle;rounded=0;orthogonalLoop=1;jettySize=auto;html=1;" parent="1" source="nORpQxfe3uyOhzm3IzQl-17" target="nORpQxfe3uyOhzm3IzQl-20" edge="1">
          <mxGeometry relative="1" as="geometry" />
        </mxCell>
        <mxCell id="nORpQxfe3uyOhzm3IzQl-17" value="Notification service" style="rounded=1;whiteSpace=wrap;html=1;" parent="1" vertex="1">
          <mxGeometry x="810" y="765" width="100" height="30" as="geometry" />
        </mxCell>
        <mxCell id="nORpQxfe3uyOhzm3IzQl-45" style="edgeStyle=orthogonalEdgeStyle;rounded=0;orthogonalLoop=1;jettySize=auto;html=1;" parent="1" source="nORpQxfe3uyOhzm3IzQl-18" target="nORpQxfe3uyOhzm3IzQl-28" edge="1">
          <mxGeometry relative="1" as="geometry" />
        </mxCell>
        <mxCell id="nORpQxfe3uyOhzm3IzQl-18" value="Fraud Detection service" style="rounded=1;whiteSpace=wrap;html=1;" parent="1" vertex="1">
          <mxGeometry x="50" y="880" width="100" height="30" as="geometry" />
        </mxCell>
        <mxCell id="nORpQxfe3uyOhzm3IzQl-19" value="SMS" style="rounded=1;whiteSpace=wrap;html=1;" parent="1" vertex="1">
          <mxGeometry x="1000" y="840" width="100" height="30" as="geometry" />
        </mxCell>
        <mxCell id="nORpQxfe3uyOhzm3IzQl-20" value="Email" style="rounded=1;whiteSpace=wrap;html=1;" parent="1" vertex="1">
          <mxGeometry x="1010" y="765" width="100" height="30" as="geometry" />
        </mxCell>
        <mxCell id="nORpQxfe3uyOhzm3IzQl-21" value="APP Notification" style="rounded=1;whiteSpace=wrap;html=1;" parent="1" vertex="1">
          <mxGeometry x="1000" y="670" width="100" height="30" as="geometry" />
        </mxCell>
        <mxCell id="nORpQxfe3uyOhzm3IzQl-26" value="Registration User Mangment servce" style="rounded=1;whiteSpace=wrap;html=1;" parent="1" vertex="1">
          <mxGeometry x="10" y="680" width="110" height="40" as="geometry" />
        </mxCell>
        <mxCell id="nORpQxfe3uyOhzm3IzQl-28" value="MySQL" style="shape=cylinder3;whiteSpace=wrap;html=1;boundedLbl=1;backgroundOutline=1;size=15;" parent="1" vertex="1">
          <mxGeometry x="-100" y="900" width="60" height="80" as="geometry" />
        </mxCell>
        <mxCell id="nORpQxfe3uyOhzm3IzQl-29" style="edgeStyle=orthogonalEdgeStyle;rounded=0;orthogonalLoop=1;jettySize=auto;html=1;entryX=0.5;entryY=0;entryDx=0;entryDy=0;entryPerimeter=0;" parent="1" source="nORpQxfe3uyOhzm3IzQl-26" target="nORpQxfe3uyOhzm3IzQl-28" edge="1">
          <mxGeometry relative="1" as="geometry" />
        </mxCell>
        <mxCell id="nORpQxfe3uyOhzm3IzQl-31" style="edgeStyle=orthogonalEdgeStyle;rounded=0;orthogonalLoop=1;jettySize=auto;html=1;entryX=0.5;entryY=1;entryDx=0;entryDy=0;entryPerimeter=0;" parent="1" source="nORpQxfe3uyOhzm3IzQl-17" target="nORpQxfe3uyOhzm3IzQl-28" edge="1">
          <mxGeometry relative="1" as="geometry">
            <Array as="points">
              <mxPoint x="860" y="1390" />
              <mxPoint x="-70" y="1390" />
            </Array>
          </mxGeometry>
        </mxCell>
        <mxCell id="nORpQxfe3uyOhzm3IzQl-59" style="edgeStyle=orthogonalEdgeStyle;rounded=0;orthogonalLoop=1;jettySize=auto;html=1;entryX=0.5;entryY=0;entryDx=0;entryDy=0;" parent="1" source="nORpQxfe3uyOhzm3IzQl-33" target="nORpQxfe3uyOhzm3IzQl-46" edge="1">
          <mxGeometry relative="1" as="geometry" />
        </mxCell>
        <mxCell id="nORpQxfe3uyOhzm3IzQl-33" value="Verification Topic" style="shape=process;whiteSpace=wrap;html=1;backgroundOutline=1;" parent="1" vertex="1">
          <mxGeometry x="240" y="890" width="110" height="50" as="geometry" />
        </mxCell>
        <mxCell id="nORpQxfe3uyOhzm3IzQl-56" style="edgeStyle=orthogonalEdgeStyle;rounded=0;orthogonalLoop=1;jettySize=auto;html=1;" parent="1" source="nORpQxfe3uyOhzm3IzQl-46" target="nORpQxfe3uyOhzm3IzQl-55" edge="1">
          <mxGeometry relative="1" as="geometry" />
        </mxCell>
        <mxCell id="nORpQxfe3uyOhzm3IzQl-57" value="store token, stat of this step" style="edgeLabel;html=1;align=center;verticalAlign=middle;resizable=0;points=[];" parent="nORpQxfe3uyOhzm3IzQl-56" connectable="0" vertex="1">
          <mxGeometry x="-0.0435" y="5" relative="1" as="geometry">
            <mxPoint as="offset" />
          </mxGeometry>
        </mxCell>
        <mxCell id="nORpQxfe3uyOhzm3IzQl-63" style="edgeStyle=orthogonalEdgeStyle;rounded=0;orthogonalLoop=1;jettySize=auto;html=1;" parent="1" source="nORpQxfe3uyOhzm3IzQl-46" target="nORpQxfe3uyOhzm3IzQl-26" edge="1">
          <mxGeometry relative="1" as="geometry" />
        </mxCell>
        <mxCell id="nORpQxfe3uyOhzm3IzQl-46" value="Email Verfication Srv" style="rounded=1;whiteSpace=wrap;html=1;" parent="1" vertex="1">
          <mxGeometry x="240" y="1020" width="110" height="40" as="geometry" />
        </mxCell>
        <mxCell id="nORpQxfe3uyOhzm3IzQl-52" style="edgeStyle=orthogonalEdgeStyle;rounded=0;orthogonalLoop=1;jettySize=auto;html=1;" parent="1" source="nORpQxfe3uyOhzm3IzQl-49" target="nORpQxfe3uyOhzm3IzQl-33" edge="1">
          <mxGeometry relative="1" as="geometry">
            <Array as="points">
              <mxPoint x="395" y="925" />
            </Array>
          </mxGeometry>
        </mxCell>
        <mxCell id="nORpQxfe3uyOhzm3IzQl-58" style="edgeStyle=orthogonalEdgeStyle;rounded=0;orthogonalLoop=1;jettySize=auto;html=1;" parent="1" source="nORpQxfe3uyOhzm3IzQl-49" target="nORpQxfe3uyOhzm3IzQl-55" edge="1">
          <mxGeometry relative="1" as="geometry">
            <Array as="points">
              <mxPoint x="400" y="1240" />
            </Array>
          </mxGeometry>
        </mxCell>
        <mxCell id="nORpQxfe3uyOhzm3IzQl-49" value="Email Verfication" style="rounded=1;whiteSpace=wrap;html=1;" parent="1" vertex="1">
          <mxGeometry x="340" y="800" width="110" height="40" as="geometry" />
        </mxCell>
        <mxCell id="nORpQxfe3uyOhzm3IzQl-53" style="edgeStyle=orthogonalEdgeStyle;rounded=0;orthogonalLoop=1;jettySize=auto;html=1;entryX=0.6;entryY=1;entryDx=0;entryDy=0;entryPerimeter=0;" parent="1" source="nORpQxfe3uyOhzm3IzQl-46" target="nORpQxfe3uyOhzm3IzQl-17" edge="1">
          <mxGeometry relative="1" as="geometry" />
        </mxCell>
        <mxCell id="nORpQxfe3uyOhzm3IzQl-55" value="Use State" style="shape=cylinder3;whiteSpace=wrap;html=1;boundedLbl=1;backgroundOutline=1;size=15;" parent="1" vertex="1">
          <mxGeometry x="290" y="1200" width="60" height="80" as="geometry" />
        </mxCell>
        <mxCell id="nORpQxfe3uyOhzm3IzQl-62" value="Cache" style="shape=parallelogram;perimeter=parallelogramPerimeter;whiteSpace=wrap;html=1;fixedSize=1;" parent="1" vertex="1">
          <mxGeometry x="90" y="720" width="100" height="35" as="geometry" />
        </mxCell>
        <mxCell id="nORpQxfe3uyOhzm3IzQl-98" style="edgeStyle=orthogonalEdgeStyle;rounded=0;orthogonalLoop=1;jettySize=auto;html=1;" parent="1" source="nORpQxfe3uyOhzm3IzQl-64" target="nORpQxfe3uyOhzm3IzQl-71" edge="1">
          <mxGeometry relative="1" as="geometry">
            <Array as="points">
              <mxPoint x="135" y="1340" />
            </Array>
          </mxGeometry>
        </mxCell>
        <mxCell id="nORpQxfe3uyOhzm3IzQl-64" value="State Mangment service" style="rounded=1;whiteSpace=wrap;html=1;" parent="1" vertex="1">
          <mxGeometry x="80" y="1090" width="110" height="40" as="geometry" />
        </mxCell>
        <mxCell id="nORpQxfe3uyOhzm3IzQl-66" style="edgeStyle=orthogonalEdgeStyle;rounded=0;orthogonalLoop=1;jettySize=auto;html=1;entryX=0;entryY=0.5;entryDx=0;entryDy=0;entryPerimeter=0;" parent="1" source="nORpQxfe3uyOhzm3IzQl-64" target="nORpQxfe3uyOhzm3IzQl-55" edge="1">
          <mxGeometry relative="1" as="geometry">
            <Array as="points">
              <mxPoint x="150" y="1240" />
            </Array>
          </mxGeometry>
        </mxCell>
        <mxCell id="nORpQxfe3uyOhzm3IzQl-80" style="edgeStyle=orthogonalEdgeStyle;rounded=0;orthogonalLoop=1;jettySize=auto;html=1;" parent="1" source="nORpQxfe3uyOhzm3IzQl-67" target="nORpQxfe3uyOhzm3IzQl-64" edge="1">
          <mxGeometry relative="1" as="geometry">
            <Array as="points">
              <mxPoint x="545" y="1070" />
              <mxPoint x="135" y="1070" />
            </Array>
          </mxGeometry>
        </mxCell>
        <mxCell id="nORpQxfe3uyOhzm3IzQl-84" style="edgeStyle=orthogonalEdgeStyle;rounded=0;orthogonalLoop=1;jettySize=auto;html=1;entryX=0;entryY=0.75;entryDx=0;entryDy=0;" parent="1" source="nORpQxfe3uyOhzm3IzQl-67" target="nORpQxfe3uyOhzm3IzQl-82" edge="1">
          <mxGeometry relative="1" as="geometry">
            <Array as="points">
              <mxPoint x="545" y="870" />
              <mxPoint x="660" y="870" />
              <mxPoint x="660" y="978" />
            </Array>
          </mxGeometry>
        </mxCell>
        <mxCell id="nORpQxfe3uyOhzm3IzQl-88" style="edgeStyle=orthogonalEdgeStyle;rounded=0;orthogonalLoop=1;jettySize=auto;html=1;" parent="1" source="nORpQxfe3uyOhzm3IzQl-67" target="nORpQxfe3uyOhzm3IzQl-79" edge="1">
          <mxGeometry relative="1" as="geometry" />
        </mxCell>
        <mxCell id="nORpQxfe3uyOhzm3IzQl-100" style="edgeStyle=orthogonalEdgeStyle;rounded=0;orthogonalLoop=1;jettySize=auto;html=1;entryX=0.5;entryY=0;entryDx=0;entryDy=0;" parent="1" source="nORpQxfe3uyOhzm3IzQl-67" target="nORpQxfe3uyOhzm3IzQl-99" edge="1">
          <mxGeometry relative="1" as="geometry" />
        </mxCell>
        <mxCell id="nORpQxfe3uyOhzm3IzQl-67" value="KYC" style="rounded=1;whiteSpace=wrap;html=1;" parent="1" vertex="1">
          <mxGeometry x="490" y="795" width="110" height="40" as="geometry" />
        </mxCell>
        <mxCell id="nORpQxfe3uyOhzm3IzQl-95" style="edgeStyle=orthogonalEdgeStyle;rounded=0;orthogonalLoop=1;jettySize=auto;html=1;entryX=0;entryY=0.5;entryDx=0;entryDy=0;" parent="1" source="nORpQxfe3uyOhzm3IzQl-68" target="nORpQxfe3uyOhzm3IzQl-94" edge="1">
          <mxGeometry relative="1" as="geometry" />
        </mxCell>
        <mxCell id="nORpQxfe3uyOhzm3IzQl-68" value="Deposit" style="rounded=1;whiteSpace=wrap;html=1;" parent="1" vertex="1">
          <mxGeometry x="630" y="800" width="110" height="40" as="geometry" />
        </mxCell>
        <mxCell id="nORpQxfe3uyOhzm3IzQl-70" style="edgeStyle=orthogonalEdgeStyle;rounded=0;orthogonalLoop=1;jettySize=auto;html=1;entryX=0.391;entryY=-0.025;entryDx=0;entryDy=0;entryPerimeter=0;" parent="1" source="nORpQxfe3uyOhzm3IzQl-7" target="nORpQxfe3uyOhzm3IzQl-68" edge="1">
          <mxGeometry relative="1" as="geometry" />
        </mxCell>
        <mxCell id="nORpQxfe3uyOhzm3IzQl-75" value="C" style="edgeLabel;html=1;align=center;verticalAlign=middle;resizable=0;points=[];" parent="nORpQxfe3uyOhzm3IzQl-70" connectable="0" vertex="1">
          <mxGeometry x="-0.4657" y="1" relative="1" as="geometry">
            <mxPoint as="offset" />
          </mxGeometry>
        </mxCell>
        <mxCell id="nORpQxfe3uyOhzm3IzQl-97" style="edgeStyle=orthogonalEdgeStyle;rounded=0;orthogonalLoop=1;jettySize=auto;html=1;" parent="1" source="nORpQxfe3uyOhzm3IzQl-71" target="nORpQxfe3uyOhzm3IzQl-96" edge="1">
          <mxGeometry relative="1" as="geometry">
            <Array as="points">
              <mxPoint x="830" y="1210" />
              <mxPoint x="830" y="1040" />
              <mxPoint x="850" y="1040" />
            </Array>
          </mxGeometry>
        </mxCell>
        <mxCell id="nORpQxfe3uyOhzm3IzQl-71" value="RewardCheck" style="rounded=1;whiteSpace=wrap;html=1;" parent="1" vertex="1">
          <mxGeometry x="580" y="1320" width="110" height="40" as="geometry" />
        </mxCell>
        <mxCell id="nORpQxfe3uyOhzm3IzQl-76" value="External webhock" style="rounded=1;whiteSpace=wrap;html=1;" parent="1" vertex="1">
          <mxGeometry x="940" y="1090" width="110" height="40" as="geometry" />
        </mxCell>
        <mxCell id="nORpQxfe3uyOhzm3IzQl-79" value="ObjectStore" style="shape=cylinder3;whiteSpace=wrap;html=1;boundedLbl=1;backgroundOutline=1;size=15;" parent="1" vertex="1">
          <mxGeometry x="510" y="1120" width="60" height="80" as="geometry" />
        </mxCell>
        <mxCell id="nORpQxfe3uyOhzm3IzQl-89" style="edgeStyle=orthogonalEdgeStyle;rounded=0;orthogonalLoop=1;jettySize=auto;html=1;" parent="1" source="nORpQxfe3uyOhzm3IzQl-81" target="nORpQxfe3uyOhzm3IzQl-90" edge="1">
          <mxGeometry relative="1" as="geometry">
            <mxPoint x="740" y="1090" as="targetPoint" />
            <Array as="points">
              <mxPoint x="995" y="1060" />
              <mxPoint x="741" y="1060" />
              <mxPoint x="741" y="1080" />
            </Array>
          </mxGeometry>
        </mxCell>
        <mxCell id="nORpQxfe3uyOhzm3IzQl-81" value="External Verfication Service" style="rounded=1;whiteSpace=wrap;html=1;" parent="1" vertex="1">
          <mxGeometry x="940" y="950" width="110" height="40" as="geometry" />
        </mxCell>
        <mxCell id="nORpQxfe3uyOhzm3IzQl-85" style="edgeStyle=orthogonalEdgeStyle;rounded=0;orthogonalLoop=1;jettySize=auto;html=1;entryX=0;entryY=0.5;entryDx=0;entryDy=0;" parent="1" source="nORpQxfe3uyOhzm3IzQl-82" target="nORpQxfe3uyOhzm3IzQl-81" edge="1">
          <mxGeometry relative="1" as="geometry" />
        </mxCell>
        <mxCell id="nORpQxfe3uyOhzm3IzQl-82" value="Verification Topic" style="shape=process;whiteSpace=wrap;html=1;backgroundOutline=1;" parent="1" vertex="1">
          <mxGeometry x="720" y="940" width="110" height="50" as="geometry" />
        </mxCell>
        <mxCell id="nORpQxfe3uyOhzm3IzQl-91" style="edgeStyle=orthogonalEdgeStyle;rounded=0;orthogonalLoop=1;jettySize=auto;html=1;" parent="1" source="nORpQxfe3uyOhzm3IzQl-90" target="nORpQxfe3uyOhzm3IzQl-64" edge="1">
          <mxGeometry relative="1" as="geometry" />
        </mxCell>
        <mxCell id="nORpQxfe3uyOhzm3IzQl-92" value="Event Based" style="edgeLabel;html=1;align=center;verticalAlign=middle;resizable=0;points=[];" parent="nORpQxfe3uyOhzm3IzQl-91" connectable="0" vertex="1">
          <mxGeometry x="-0.4364" relative="1" as="geometry">
            <mxPoint as="offset" />
          </mxGeometry>
        </mxCell>
        <mxCell id="nORpQxfe3uyOhzm3IzQl-90" value="KYC consumer Ver. Ser" style="rounded=1;whiteSpace=wrap;html=1;" parent="1" vertex="1">
          <mxGeometry x="600" y="1060" width="110" height="40" as="geometry" />
        </mxCell>
        <mxCell id="nORpQxfe3uyOhzm3IzQl-93" value="Usser&lt;br&gt;meta Data&lt;br&gt;ver1: status&amp;nbsp;&lt;br&gt;ver2: status&lt;br&gt;&lt;br&gt;&lt;br&gt;&lt;br&gt;STATUS: Started/ Notstarted- completed - rejectec" style="text;html=1;align=center;verticalAlign=middle;whiteSpace=wrap;rounded=0;" parent="1" vertex="1">
          <mxGeometry x="-130" y="1000" width="60" height="30" as="geometry" />
        </mxCell>
        <mxCell id="nORpQxfe3uyOhzm3IzQl-94" value="Wallet" style="rounded=1;whiteSpace=wrap;html=1;" parent="1" vertex="1">
          <mxGeometry x="910" y="890" width="110" height="40" as="geometry" />
        </mxCell>
        <mxCell id="nORpQxfe3uyOhzm3IzQl-96" value="Deposit" style="shape=process;whiteSpace=wrap;html=1;backgroundOutline=1;" parent="1" vertex="1">
          <mxGeometry x="750" y="840" width="110" height="50" as="geometry" />
        </mxCell>
        <mxCell id="nORpQxfe3uyOhzm3IzQl-99" value="Duplicated Detection service" style="rounded=1;whiteSpace=wrap;html=1;" parent="1" vertex="1">
          <mxGeometry x="425" y="895" width="100" height="30" as="geometry" />
        </mxCell>
      </root>
    </mxGraphModel>
  </diagram>
</mxfile>
